<svg width="14" height="15" viewBox="0 0 14 15" xmlns="http://www.w3.org/2000/svg">
  <path d="M6.9953 3.32201C7.50929 3.32201 7.99194 3.41666 8.44325 3.60595C8.89456 3.79523 9.28946 4.06024 9.62794 4.40096C9.96642 4.74168 10.2297 5.13918 10.4177 5.59348C10.6058 6.04777 10.6998 6.53361 10.6998 7.051C10.6998 7.56839 10.6058 8.04792 10.4177 8.48959C10.2297 8.93126 9.96642 9.32877 9.62794 9.68211C9.28946 10.0354 8.89456 10.3004 8.44325 10.4771C7.99194 10.6538 7.50929 10.7547 6.9953 10.78C6.48131 10.8052 5.99866 10.7043 5.54735 10.4771C5.09604 10.25 4.70741 9.98497 4.38146 9.68211C4.05552 9.37924 3.79225 8.98174 3.59167 8.48959C3.39109 7.99744 3.2908 7.51791 3.2908 7.051C3.2908 6.58408 3.39109 6.09824 3.59167 5.59348C3.79225 5.08871 4.05552 4.6912 4.38146 4.40096C4.70741 4.11072 5.09604 3.84571 5.54735 3.60595C5.99866 3.36618 6.48131 3.27154 6.9953 3.32201ZM6.9953 9.45496C7.32124 9.45496 7.62839 9.39186 7.91672 9.26567C8.20506 9.13948 8.46206 8.96912 8.68771 8.75459C8.91336 8.54007 9.08261 8.28137 9.19543 7.97851C9.30826 7.67565 9.37094 7.36648 9.38348 7.051C9.39602 6.73552 9.33333 6.42003 9.19543 6.10455C9.05753 5.78907 8.88829 5.53038 8.68771 5.32847C8.48713 5.12656 8.23013 4.9562 7.91672 4.81739C7.60331 4.67858 7.29617 4.61548 6.9953 4.6281C6.69443 4.64072 6.38728 4.70382 6.07387 4.81739C5.76047 4.93097 5.50347 5.10133 5.30289 5.32847C5.10231 5.55562 4.93306 5.81431 4.79516 6.10455C4.65726 6.3948 4.59458 6.71028 4.60712 7.051C4.61966 7.39172 4.68234 7.70089 4.79516 7.97851C4.90799 8.25613 5.07723 8.51483 5.30289 8.75459C5.52854 8.99436 5.78554 9.16472 6.07387 9.26567C6.36221 9.36663 6.66935 9.42972 6.9953 9.45496ZM13.9154 3.5113C14.0282 5.8711 14.0282 8.2309 13.9154 10.5907C13.8903 11.045 13.7837 11.474 13.5957 11.8779C13.4077 12.2817 13.1632 12.635 12.8623 12.9379C12.5615 13.2407 12.2042 13.4931 11.7905 13.695C11.3768 13.8969 10.9505 14.0042 10.5118 14.0168C9.92254 14.0421 9.3396 14.061 8.76293 14.0736C8.18625 14.0862 7.59704 14.0925 6.9953 14.0925C6.39355 14.0925 5.81061 14.0862 5.24647 14.0736C4.68234 14.061 4.09313 14.0421 3.47884 14.0168C3.02754 13.9916 2.6013 13.8843 2.20013 13.695C1.79897 13.5057 1.44795 13.2534 1.14708 12.9379C0.846206 12.6224 0.595478 12.269 0.394896 11.8779C0.194314 11.4867 0.0877546 11.0576 0.0752183 10.5907C-0.0250728 8.2309 -0.0250728 5.8711 0.0752183 3.5113C0.100291 3.05701 0.20685 2.62796 0.394896 2.22414C0.582942 1.82032 0.833669 1.46068 1.14708 1.1452C1.46049 0.829715 1.81151 0.58364 2.20013 0.40697C2.58876 0.230301 3.015 0.123038 3.47884 0.0851798C5.82315 -0.0283933 8.16745 -0.0283933 10.5118 0.0851798C10.9631 0.110418 11.3893 0.217682 11.7905 0.40697C12.1916 0.596259 12.5489 0.842334 12.8623 1.1452C13.1757 1.44806 13.4202 1.80771 13.5957 2.22414C13.7712 2.64057 13.8778 3.06963 13.9154 3.5113ZM12.5991 10.515C12.7119 8.20566 12.7119 5.89003 12.5991 3.56809C12.5865 3.29047 12.5176 3.02546 12.3922 2.77308C12.2668 2.52069 12.1101 2.29355 11.9221 2.09164C11.734 1.88973 11.5084 1.72568 11.2451 1.59949C10.9819 1.4733 10.7186 1.40389 10.4553 1.39127C9.87867 1.36603 9.30199 1.3471 8.72532 1.33448C8.14865 1.32186 7.57197 1.31556 6.9953 1.31556C6.41863 1.31556 5.84195 1.32186 5.26528 1.33448C4.68861 1.3471 4.11193 1.36603 3.53526 1.39127C3.25946 1.40389 2.99619 1.4733 2.74547 1.59949C2.49474 1.72568 2.27535 1.88973 2.08731 2.09164C1.89926 2.29355 1.73629 2.52069 1.59839 2.77308C1.46049 3.02546 1.39154 3.29047 1.39154 3.56809C1.27871 5.89003 1.27871 8.21197 1.39154 10.5339C1.40407 10.8115 1.47302 11.0765 1.59839 11.3289C1.72375 11.5813 1.88672 11.8021 2.08731 11.9914C2.28789 12.1807 2.50728 12.3448 2.74547 12.4836C2.98366 12.6224 3.24692 12.6918 3.53526 12.6918C5.84195 12.8054 8.14865 12.8054 10.4553 12.6918C10.7311 12.6792 10.9944 12.6098 11.2451 12.4836C11.4959 12.3574 11.7215 12.1933 11.9221 11.9914C12.1227 11.7895 12.2794 11.5624 12.3922 11.31C12.505 11.0576 12.574 10.7926 12.5991 10.515ZM10.6998 2.48914C10.9255 2.48914 11.1198 2.57117 11.2827 2.73522C11.4457 2.89927 11.5272 3.09487 11.5272 3.32201C11.5272 3.54916 11.4457 3.74476 11.2827 3.90881C11.1198 4.07286 10.9255 4.15488 10.6998 4.15488C10.4741 4.15488 10.2798 4.07286 10.1169 3.90881C9.95388 3.74476 9.8724 3.54916 9.8724 3.32201C9.8724 3.09487 9.95388 2.89927 10.1169 2.73522C10.2798 2.57117 10.4741 2.48914 10.6998 2.48914Z"/>
</svg>
