<svg width="20" height="24" viewBox="0 0 20 24" xmlns="http://www.w3.org/2000/svg" fill="currentColor">
  <path d="M10.3262 0C3.74845 0 0.25029 4.21519 0.25029 8.8114C0.25029 10.943 1.44134 13.6011 3.34793 14.4441C3.63744 14.5747 3.79495 14.5192 3.85945 14.2506C3.91645 14.0466 4.16697 13.0641 4.28847 12.6006C4.32597 12.4521 4.30647 12.3231 4.18647 12.1835C3.55344 11.4515 3.05092 10.118 3.05092 8.8669C3.05092 5.66125 5.59953 2.54861 9.93622 2.54861C13.6864 2.54861 16.31 4.98472 16.31 8.46938C16.31 12.4071 14.2264 15.1312 11.5188 15.1312C10.0202 15.1312 8.90418 13.9551 9.25819 12.5001C9.68571 10.7675 10.5242 8.9044 10.5242 7.65484C10.5242 6.53429 9.89122 5.60725 8.59816 5.60725C7.0726 5.60725 5.83504 7.11782 5.83504 9.14591C5.83504 10.4345 6.29106 11.3045 6.29106 11.3045C6.29106 11.3045 4.78199 17.4008 4.50148 18.5393C4.02746 20.4669 4.56598 23.5886 4.61248 23.8571C4.64099 24.0056 4.80749 24.0521 4.9005 23.9306C5.049 23.7356 6.87309 21.1329 7.38461 19.2519C7.57062 18.5663 8.33415 15.7867 8.33415 15.7867C8.83667 16.6943 10.2872 17.4548 11.8323 17.4548C16.4285 17.4548 19.7497 13.4151 19.7497 8.40188C19.7332 3.59566 15.62 0 10.3262 0Z" />
</svg>
