<svg width="18" height="15" viewBox="0 0 18 15" xmlns="http://www.w3.org/2000/svg">
<path d="M16.1673 3.50843V3.97044C16.1673 4.75444 16.0655 5.54545 15.8618 6.34346C15.6582 7.14147 15.36 7.91847 14.9673 8.67448C14.5745 9.43049 14.0727 10.1375 13.4618 10.7955C12.8509 11.4535 12.1673 12.0275 11.4109 12.5175C10.6545 13.0075 9.78909 13.3925 8.81455 13.6725C7.84 13.9525 6.79273 14.0925 5.67273 14.0925C4.62545 14.0925 3.62909 13.9525 2.68364 13.6725C1.73818 13.3925 0.843636 13.0005 0 12.4965C0.276364 12.5385 0.567273 12.5595 0.872727 12.5595C1.74545 12.5595 2.57455 12.4195 3.36 12.1395C4.14545 11.8595 4.85091 11.4885 5.47636 11.0265C4.66182 11.0125 3.94182 10.7745 3.31636 10.3125C2.69091 9.85049 2.25455 9.26249 2.00727 8.54848C2.24 8.59048 2.47273 8.61148 2.70545 8.61148C3.02545 8.61148 3.35273 8.57648 3.68727 8.50648C3.26545 8.42248 2.87273 8.27548 2.50909 8.06547C2.14545 7.85547 1.83273 7.59647 1.57091 7.28847C1.30909 6.98046 1.10545 6.63046 0.96 6.23846C0.814545 5.84645 0.734545 5.43345 0.72 4.99945V4.95745C1.24364 5.25145 1.80364 5.40545 2.4 5.41945C1.89091 5.09745 1.49091 4.67744 1.2 4.15944C0.909091 3.64143 0.756364 3.07443 0.741818 2.45842C0.741818 2.13642 0.785455 1.82142 0.872727 1.51341C0.96 1.20541 1.08364 0.918409 1.24364 0.652406C2.16 1.74442 3.27273 2.61942 4.58182 3.27743C5.89091 3.93544 7.31636 4.29944 8.85818 4.36944C8.82909 4.24344 8.80727 4.11044 8.79273 3.97044C8.77818 3.83044 8.77091 3.69743 8.77091 3.57143C8.77091 3.08143 8.87273 2.61942 9.07636 2.18542C9.28 1.75142 9.54182 1.37341 9.86182 1.05141C10.1818 0.729407 10.5745 0.470404 11.04 0.274403C11.5055 0.0784007 11.9782 -0.0126001 12.4582 0.00140001C12.9964 0.00140001 13.4982 0.0994009 13.9636 0.295403C14.4291 0.491405 14.8291 0.771407 15.1636 1.13541C15.9927 0.967409 16.7782 0.680406 17.52 0.274403C17.3745 0.680406 17.1636 1.05141 16.8873 1.38741C16.6109 1.72342 16.2764 2.00342 15.8836 2.22742C16.6255 2.14342 17.3309 1.96142 18 1.68142C17.5055 2.40942 16.8945 3.01843 16.1673 3.50843Z"/>
</svg>
