<svg width="19" height="15" viewBox="0 0 19 15" xmlns="http://www.w3.org/2000/svg" fill="currentColor">
<path d="M9.50863 0.0295518C11.0589 0.0295518 12.3712 0.0591037 13.4456 0.118207C14.52 0.177311 15.4103 0.295518 16.1163 0.472829C16.8224 0.65014 17.3673 0.893943 17.751 1.20424C18.1347 1.51453 18.4187 1.93564 18.6028 2.46758C18.787 2.99951 18.9022 3.63488 18.9482 4.37367C18.9942 5.11247 19.0096 6.00641 18.9942 7.0555L18.9482 9.73733C18.9328 10.4761 18.8177 11.1115 18.6028 11.6434C18.388 12.1754 18.104 12.5891 17.751 12.8846C17.398 13.1801 16.8531 13.4313 16.1163 13.6382C15.3796 13.845 14.4893 13.9632 13.4456 13.9928C12.4019 14.0223 11.0896 14.0519 9.50863 14.0814C7.9277 14.111 6.61537 14.0814 5.57164 13.9928C4.52792 13.9041 3.63769 13.7859 2.90094 13.6382C2.16419 13.4904 1.61931 13.2392 1.26628 12.8846C0.913259 12.53 0.629304 12.1163 0.41442 11.6434C0.199536 11.1706 0.0920933 10.5352 0.0920933 9.73733C0.0920933 8.93943 0.06907 8.04549 0.0230233 7.0555C-0.0230233 6.06551 0 5.17157 0.0920933 4.37367C0.184187 3.57577 0.291629 2.94041 0.41442 2.46758C0.537211 1.99475 0.821165 1.57363 1.26628 1.20424C1.7114 0.834839 2.25629 0.591037 2.90094 0.472829C3.54559 0.354622 4.43583 0.236415 5.57164 0.118207C6.70746 0 8.01979 -0.0295518 9.50863 0.0295518ZM12.5477 7.36579C12.7319 7.27714 12.824 7.17371 12.824 7.0555C12.824 6.93729 12.7319 6.83386 12.5477 6.74521L8.2884 4.83911C8.10421 4.75046 7.95072 4.74307 7.82793 4.81695C7.70514 4.89083 7.63607 5.03859 7.62072 5.26023V8.85077C7.62072 9.05764 7.68979 9.19801 7.82793 9.27189C7.96607 9.34577 8.11956 9.34577 8.2884 9.27189L12.5477 7.36579Z"/>
</svg>
